 <svg width="235" height="75" viewBox="0 0 235 75" fill="none" xmlns="http://www.w3.org/2000/svg">
<g clip-path="url(#clip0_1_30)">
<path d="M36.7857 74.0875L12.3319 59.9655C11.7456 59.6257 11.2589 59.1379 10.9203 58.5509C10.5817 57.9639 10.4032 57.2982 10.4026 56.6206V28.388C10.4012 27.7084 10.5787 27.0404 10.9174 26.4513C11.2561 25.8621 11.744 25.3724 12.3319 25.0316L36.7857 10.9211C37.374 10.5814 38.0414 10.4026 38.7207 10.4026C39.4001 10.4026 40.0675 10.5814 40.6558 10.9211L65.0981 25.0431C65.6861 25.3839 66.1739 25.8735 66.5126 26.4627C66.8513 27.0519 67.0289 27.7199 67.0275 28.3995V56.6206C67.0289 57.3002 66.8513 57.9681 66.5126 58.5573C66.1739 59.1465 65.6861 59.6362 65.0981 59.977L40.6558 74.0875C40.0675 74.4272 39.4001 74.606 38.7207 74.606C38.0414 74.606 37.374 74.4272 36.7857 74.0875Z" fill="url(#paint0_linear_1_30)"/>
<path d="M34.8952 54.6626L34.8991 54.6655C34.8991 55.4594 34.5964 55.984 33.9087 56.3752L28.6908 59.3944C28.4711 59.5209 28.2216 59.5875 27.968 59.5875C27.1905 59.5875 26.5266 58.9427 26.5266 58.1403L26.5334 26.7675C26.5334 25.9736 26.836 25.449 27.5232 25.0515L32.714 22.0509C32.9308 21.9205 33.1844 21.8454 33.4554 21.8454C34.2504 21.8454 34.8952 22.4903 34.8952 23.2853C34.8952 23.8273 34.5954 24.2994 34.1528 24.545L29.4126 27.2847V55.6489L32.0156 54.1441V42.2987C32.0156 41.5037 32.6604 40.8589 33.4554 40.8589C34.2505 40.8589 34.8953 41.5037 34.8953 42.2987L34.8952 54.6626ZM50.3572 25.0528L50.3605 25.0512C51.0483 25.4487 51.3509 25.9732 51.3509 26.7671V38.8177C51.3509 39.6116 51.0482 40.1361 50.3605 40.5336L40.385 46.2993V57.8322C40.385 58.6261 40.0824 59.1507 39.3952 59.5482L34.2044 62.5487C33.9876 62.6792 33.734 62.7543 33.463 62.7543C32.668 62.7543 32.0232 62.1094 32.0232 61.3144C32.0232 60.7724 32.323 60.3003 32.7656 60.0547L37.5058 57.315V45.782C37.5058 44.9881 37.8085 44.4636 38.4957 44.0661L48.4711 38.3004V27.286L44.4283 24.9489L34.9036 30.4548V33.4667L43.7008 28.3786C43.9204 28.2521 44.17 28.1849 44.4235 28.1849C45.2005 28.1849 45.8611 28.823 45.8611 29.6242L45.8674 35.649C45.8685 36.4429 45.5647 36.9675 44.8775 37.365L39.6867 40.3655C39.4699 40.4959 39.2164 40.571 38.9453 40.571C38.1503 40.571 37.5055 39.9262 37.5055 39.1312C37.5055 38.5891 37.8053 38.1171 38.2479 37.8714L42.9882 35.1318V32.1199L34.1774 37.2108C33.9578 37.3373 33.7082 37.4045 33.4546 37.4045C32.6766 37.4045 32.0125 36.7597 32.0125 35.9573L32.0193 29.9376C32.0204 29.1437 32.3219 28.6191 33.009 28.2216L43.4334 22.1963C43.7773 21.9975 44.1008 21.8982 44.4245 21.8982C44.7481 21.8982 45.0716 21.9975 45.4155 22.1963L50.3572 25.0528Z" fill="#0D0D0D"/>
<path d="M77.4992 45.9124V29.3345H80.8562C82.9906 29.3345 83.5502 30.64 83.7159 33.769V34.4322C83.5502 37.5612 82.9906 38.8668 80.8562 38.8668H79.5715V45.9124H77.4992ZM79.5715 37.209H80.8562C81.4779 37.209 81.7059 36.6909 81.7888 34.4322V33.769C81.7059 31.5103 81.4779 30.9922 80.8562 30.9922H79.5715V37.209ZM86.2026 45.9124V29.3345H90.9688V30.9922H88.2749V36.3801H90.5543V38.0379H88.2749V43.8401H90.9688V45.9124H86.2026ZM92.8338 29.3345H95.0096L96.253 41.5607H96.4602L97.7036 29.3345H99.8794L97.5999 45.9124H95.1133L92.8338 29.3345ZM102.366 45.9124V29.3345H104.231L106.946 39.4884L106.925 39.2812V29.3345H108.997V45.9124H107.132L104.418 36.7945L104.438 37.0017V45.9124H102.366ZM111.898 37.1882C111.898 31.4067 112.023 29.1272 115.131 29.1272C118.239 29.1272 118.364 31.4067 118.364 37.1882C118.364 43.8194 118.239 46.1196 115.131 46.1196C112.023 46.1196 111.898 43.8194 111.898 37.1882ZM113.971 37.1882C113.971 43.177 113.971 44.0474 115.131 44.0474C116.292 44.0474 116.292 43.177 116.292 37.1882C116.292 31.8004 116.292 30.785 115.131 30.785C113.971 30.785 113.971 31.8004 113.971 37.1882ZM120.85 40.8561H122.943C122.985 43.5293 123.192 44.0474 123.938 44.0474C124.954 44.0474 124.954 43.1977 124.954 40.939C124.954 37.6234 120.85 38.5145 120.85 34.1006C120.85 31.5103 120.85 29.1272 123.959 29.1272C126.259 29.1272 126.881 30.4327 127.026 33.5618H124.954C124.871 31.3031 124.622 30.785 123.959 30.785C122.943 30.785 122.943 31.904 122.943 34.1006C122.943 37.3126 127.067 36.1728 127.067 40.939C127.067 43.8401 127.067 46.1196 123.938 46.1196C121.534 46.1196 120.975 44.6897 120.85 40.8561ZM128.932 31.1995V29.3345H135.149V31.1995H133.077V45.9124H131.004V31.1995H128.932ZM142.816 37.1882C142.816 31.4067 142.816 29.1272 145.717 29.1272C147.852 29.1272 148.432 30.4327 148.577 33.5618H146.65C146.567 31.3031 146.339 30.785 145.717 30.785C144.764 30.785 144.764 31.8004 144.764 37.1882C144.764 43.177 144.764 44.0474 145.717 44.0474C146.401 44.0474 146.608 43.5293 146.65 40.8561H148.598C148.473 44.6897 147.955 46.1196 145.717 46.1196C142.816 46.1196 142.816 43.8194 142.816 37.1882ZM150.877 37.1882C150.877 31.4067 151.002 29.1272 154.11 29.1272C157.218 29.1272 157.343 31.4067 157.343 37.1882C157.343 43.8194 157.218 46.1196 154.11 46.1196C151.002 46.1196 150.877 43.8194 150.877 37.1882ZM152.949 37.1882C152.949 43.177 152.949 44.0474 154.11 44.0474C155.27 44.0474 155.27 43.177 155.27 37.1882C155.27 31.8004 155.27 30.785 154.11 30.785C152.949 30.785 152.949 31.8004 152.949 37.1882ZM160.244 45.9124V29.3345H163.601C165.735 29.3345 166.46 30.64 166.46 33.1474C166.46 35.4061 166.191 36.6909 165.549 37.3126V37.4369C166.087 37.6234 166.253 38.5974 166.46 41.0219L166.875 45.9124H164.803L164.533 41.0219C164.388 38.5559 164.015 38.0379 163.394 38.0379H162.316V45.9124H160.244ZM162.316 36.3801H163.601C164.326 36.3801 164.533 35.6548 164.533 33.1474C164.533 31.5103 164.222 30.9922 163.601 30.9922H162.316V36.3801ZM169.569 45.9124V29.3345H172.926C175.06 29.3345 175.62 30.64 175.786 33.769V34.4322C175.62 37.5612 175.06 38.8668 172.926 38.8668H171.641V45.9124H169.569ZM171.641 37.209H172.926C173.548 37.209 173.775 36.6909 173.858 34.4322V33.769C173.775 31.5103 173.548 30.9922 172.926 30.9922H171.641V37.209ZM178.065 37.1882C178.065 31.4067 178.189 29.1272 181.298 29.1272C184.406 29.1272 184.53 31.4067 184.53 37.1882C184.53 43.8194 184.406 46.1196 181.298 46.1196C178.189 46.1196 178.065 43.8194 178.065 37.1882ZM180.137 37.1882C180.137 43.177 180.137 44.0474 181.298 44.0474C182.458 44.0474 182.458 43.177 182.458 37.1882C182.458 31.8004 182.458 30.785 181.298 30.785C180.137 30.785 180.137 31.8004 180.137 37.1882ZM187.432 45.9124V29.3345H190.789C192.923 29.3345 193.648 30.64 193.648 33.1474C193.648 35.4061 193.379 36.6909 192.736 37.3126V37.4369C193.275 37.6234 193.441 38.5974 193.648 41.0219L194.063 45.9124H191.99L191.721 41.0219C191.576 38.5559 191.203 38.0379 190.581 38.0379H189.504V45.9124H187.432ZM189.504 36.3801H190.789C191.514 36.3801 191.721 35.6548 191.721 33.1474C191.721 31.5103 191.41 30.9922 190.789 30.9922H189.504V36.3801ZM196.757 45.9124V37.209C196.757 31.4274 196.757 29.148 199.865 29.148C202.973 29.148 202.973 31.4274 202.973 37.209V45.9124H200.901V41.1462H198.829V45.9124H196.757ZM198.829 39.4884H200.901V37.209C200.901 31.8211 200.901 30.8057 199.865 30.8057C198.829 30.8057 198.829 31.8211 198.829 37.209V39.4884ZM205.253 31.1995V29.3345H211.47V31.1995H209.397V45.9124H207.325V31.1995H205.253ZM213.749 45.9124V29.3345H215.821V45.9124H213.749ZM218.722 37.1882C218.722 31.4067 218.847 29.1272 221.955 29.1272C225.063 29.1272 225.188 31.4067 225.188 37.1882C225.188 43.8194 225.063 46.1196 221.955 46.1196C218.847 46.1196 218.722 43.8194 218.722 37.1882ZM220.795 37.1882C220.795 43.177 220.795 44.0474 221.955 44.0474C223.115 44.0474 223.115 43.177 223.115 37.1882C223.115 31.8004 223.115 30.785 221.955 30.785C220.795 30.785 220.795 31.8004 220.795 37.1882ZM228.089 45.9124V29.3345H229.954L232.669 39.4884L232.648 39.2812V29.3345H234.72V45.9124H232.855L230.14 36.7945L230.161 37.0017V45.9124H228.089Z" fill="url(#paint1_linear_1_30)"/>
<path d="M80.1822 55.8888H79.7756L79.4679 54.6403H78.2019L77.8941 55.8888H77.4992L78.6781 51.5334H79.0091L80.1822 55.8888ZM79.3691 54.2512L78.8523 52.0967L78.3006 54.2512H79.3691ZM83.3821 54.379C83.3782 54.5958 83.3705 54.799 83.3588 54.9887C83.3472 55.1784 83.3076 55.3439 83.2398 55.4852C83.172 55.6266 83.0646 55.7379 82.9175 55.8192C82.7704 55.9005 82.5613 55.9411 82.2903 55.9411C82.1006 55.9411 81.9399 55.913 81.8083 55.8569C81.6767 55.8008 81.5702 55.7214 81.4889 55.6188C81.4076 55.5162 81.3486 55.3923 81.3118 55.2471C81.275 55.102 81.2566 54.9403 81.2566 54.7622V52.6716C81.2566 52.4819 81.276 52.3135 81.3147 52.1664C81.3534 52.0193 81.4163 51.8954 81.5034 51.7947C81.5905 51.6941 81.7038 51.6186 81.8432 51.5683C81.9825 51.5179 82.1529 51.4928 82.3542 51.4928C82.5981 51.4928 82.7878 51.5344 82.9233 51.6176C83.0588 51.7009 83.1604 51.8122 83.2282 51.9515C83.2959 52.0909 83.3376 52.2506 83.353 52.4306C83.3685 52.6107 83.3782 52.7974 83.3821 52.991H82.9988C82.9988 52.8633 82.9978 52.7316 82.9959 52.5961C82.994 52.4606 82.9746 52.3377 82.9378 52.2274C82.9011 52.117 82.8372 52.0261 82.7462 51.9544C82.6552 51.8828 82.5207 51.847 82.3426 51.847C82.2071 51.847 82.0939 51.8664 82.0029 51.9051C81.9119 51.9438 81.8403 51.9999 81.788 52.0735C81.7357 52.1471 81.699 52.2342 81.6777 52.3348C81.6564 52.4355 81.6457 52.5477 81.6457 52.6716L81.6573 54.7913C81.6573 54.9074 81.6661 55.0129 81.6835 55.1078C81.7009 55.2026 81.7328 55.2839 81.7793 55.3517C81.8258 55.4194 81.8906 55.4717 81.9738 55.5085C82.0571 55.5453 82.1626 55.5636 82.2903 55.5636C82.4878 55.5636 82.6349 55.5298 82.7317 55.462C82.8285 55.3943 82.8962 55.3043 82.9349 55.192C82.9737 55.0797 82.994 54.9529 82.9959 54.8116C82.9979 54.6703 82.9988 54.5261 82.9988 54.379H83.3821ZM86.8259 54.379C86.822 54.5958 86.8143 54.799 86.8027 54.9887C86.7911 55.1784 86.7514 55.3439 86.6836 55.4852C86.6159 55.6266 86.5084 55.7379 86.3613 55.8192C86.2142 55.9005 86.0051 55.9411 85.7342 55.9411C85.5444 55.9411 85.3838 55.913 85.2522 55.8569C85.1205 55.8008 85.0141 55.7214 84.9328 55.6188C84.8515 55.5162 84.7924 55.3923 84.7556 55.2471C84.7189 55.102 84.7005 54.9403 84.7005 54.7622V52.6716C84.7005 52.4819 84.7198 52.3135 84.7585 52.1664C84.7973 52.0193 84.8602 51.8954 84.9473 51.7947C85.0344 51.6941 85.1476 51.6186 85.287 51.5683C85.4264 51.5179 85.5967 51.4928 85.798 51.4928C86.0419 51.4928 86.2316 51.5344 86.3671 51.6176C86.5027 51.7009 86.6043 51.8122 86.672 51.9515C86.7398 52.0909 86.7814 52.2506 86.7969 52.4306C86.8124 52.6107 86.822 52.7974 86.8259 52.991H86.4426C86.4426 52.8633 86.4417 52.7316 86.4397 52.5961C86.4378 52.4606 86.4185 52.3377 86.3817 52.2274C86.3449 52.117 86.281 52.0261 86.19 51.9544C86.0991 51.8828 85.9645 51.847 85.7864 51.847C85.6509 51.847 85.5377 51.8664 85.4467 51.9051C85.3557 51.9438 85.2841 51.9999 85.2318 52.0735C85.1796 52.1471 85.1428 52.2342 85.1215 52.3348C85.1002 52.4355 85.0896 52.5477 85.0896 52.6716L85.1012 54.7913C85.1012 54.9074 85.1099 55.0129 85.1273 55.1078C85.1447 55.2026 85.1767 55.2839 85.2231 55.3517C85.2696 55.4194 85.3344 55.4717 85.4177 55.5085C85.5009 55.5453 85.6064 55.5636 85.7342 55.5636C85.9316 55.5636 86.0787 55.5298 86.1755 55.462C86.2723 55.3943 86.3401 55.3043 86.3788 55.192C86.4175 55.0797 86.4378 54.9529 86.4398 54.8116C86.4417 54.6703 86.4427 54.5261 86.4427 54.379H86.8259ZM90.5311 54.7622C90.5311 55.1726 90.4391 55.4717 90.2552 55.6595C90.0713 55.8472 89.7723 55.9411 89.358 55.9411C88.9786 55.9411 88.7008 55.8366 88.5247 55.6275C88.3485 55.4185 88.2605 55.13 88.2605 54.7622V52.6716C88.2605 52.2729 88.3543 51.9767 88.5421 51.7831C88.7299 51.5896 89.0251 51.4928 89.4277 51.4928C89.811 51.4928 90.0907 51.5944 90.2669 51.7977C90.443 52.0009 90.5311 52.2884 90.5311 52.66V54.7622ZM90.1246 54.7506L90.1246 52.6542C90.1246 52.4335 90.0665 52.2497 89.9504 52.1025C89.8342 51.9554 89.658 51.8819 89.4219 51.8819C89.1393 51.8819 88.9428 51.9554 88.8325 52.1025C88.7221 52.2496 88.667 52.4568 88.667 52.7239V54.7274C88.667 54.8397 88.6795 54.9452 88.7047 55.0439C88.7299 55.1426 88.7705 55.2288 88.8267 55.3023C88.8828 55.3759 88.9544 55.434 89.0415 55.4765C89.1286 55.5191 89.2341 55.5404 89.358 55.5404C89.629 55.5404 89.8245 55.4746 89.9445 55.343C90.0646 55.2113 90.1246 55.0139 90.1246 54.7506ZM94.2943 54.7622C94.2943 55.1494 94.2004 55.4427 94.0127 55.642C93.8249 55.8414 93.5355 55.9411 93.1445 55.9411C92.7728 55.9411 92.4931 55.8346 92.3053 55.6217C92.1176 55.4088 92.0237 55.1223 92.0237 54.7622V51.5334H92.436V54.7448C92.436 54.8532 92.4505 54.9549 92.4795 55.0497C92.5086 55.1446 92.5521 55.2278 92.6102 55.2994C92.6683 55.371 92.7409 55.4272 92.828 55.4678C92.9151 55.5085 93.0167 55.5288 93.1329 55.5288C93.4155 55.5288 93.612 55.4504 93.7223 55.2936C93.8326 55.1368 93.8878 54.9268 93.8878 54.6635V51.5334H94.2943L94.2943 54.7622ZM98.133 55.8888H97.6801L96.1702 52.4626V55.8888H95.7521V51.5334H96.1702L97.6859 54.8145L97.7207 51.5334H98.133V55.8888ZM101.705 51.9574H100.805V55.8888H100.375V51.9574H99.4747V51.5334H101.705V51.9574ZM103.493 55.8888H103.058V51.5334H103.493V55.8888ZM107.35 55.8888H106.897L105.387 52.4626V55.8888H104.969V51.5334H105.387L106.902 54.8145L106.937 51.5334H107.35V55.8888ZM111.037 54.7622C111.037 55.1688 110.945 55.4668 110.761 55.6566C110.578 55.8463 110.28 55.9411 109.87 55.9411C109.491 55.9411 109.213 55.8366 109.037 55.6275C108.861 55.4185 108.772 55.13 108.772 54.7622V52.6716C108.772 52.2767 108.865 51.9816 109.051 51.786C109.237 51.5905 109.529 51.4928 109.928 51.4928C110.311 51.4928 110.592 51.5944 110.77 51.7977C110.948 52.0009 111.037 52.2884 111.037 52.66V53.0201H110.625C110.625 52.8807 110.624 52.7404 110.622 52.5991C110.62 52.4577 110.599 52.3319 110.558 52.2216C110.518 52.1112 110.448 52.0212 110.349 51.9515C110.25 51.8819 110.106 51.847 109.916 51.847C109.638 51.847 109.445 51.9196 109.339 52.0648C109.232 52.21 109.179 52.4123 109.179 52.6716V54.7855C109.179 55.0371 109.23 55.2297 109.333 55.3633C109.435 55.4969 109.618 55.5636 109.882 55.5636C110.145 55.5636 110.337 55.5007 110.457 55.3749C110.577 55.2491 110.637 55.0584 110.637 54.8029V54.0305L109.771 54.0247V53.6298L111.037 53.6356V54.7622ZM117.147 55.8888H116.74L116.433 54.6403H115.167L114.859 55.8888H114.464L115.643 51.5334H115.974L117.147 55.8888ZM116.334 54.2512L115.817 52.0967L115.265 54.2512H116.334ZM120.829 55.8888H120.376L118.866 52.4626V55.8888H118.448V51.5334H118.866L120.382 54.8145L120.416 51.5334H120.829V55.8888ZM124.458 53.6182C124.458 53.7615 124.459 53.9173 124.461 54.0857C124.463 54.2541 124.456 54.4225 124.441 54.5909C124.425 54.7593 124.397 54.9219 124.357 55.0787C124.316 55.2355 124.253 55.3739 124.168 55.494C124.083 55.614 123.972 55.7098 123.834 55.7814C123.697 55.853 123.525 55.8888 123.32 55.8888H122.263V51.5334H123.28C123.492 51.5334 123.669 51.5634 123.808 51.6234C123.947 51.6834 124.062 51.7647 124.151 51.8673C124.24 51.9699 124.305 52.09 124.348 52.2274C124.391 52.3648 124.42 52.511 124.435 52.6658C124.451 52.8207 124.458 52.9794 124.458 53.142L124.458 53.6182ZM124.063 53.6589L124.064 53.4092C124.064 53.3008 124.061 53.1885 124.055 53.0724C124.049 52.9562 124.041 52.8459 124.032 52.7413C124.022 52.6368 124.009 52.5594 123.994 52.5091C123.928 52.3155 123.837 52.1722 123.721 52.0793C123.605 51.9864 123.442 51.9399 123.233 51.9399H122.652V55.4707H123.309C123.394 55.4707 123.471 55.4553 123.541 55.4243C123.611 55.3933 123.674 55.3517 123.732 55.2994C123.791 55.2472 123.84 55.1872 123.881 55.1194C123.921 55.0516 123.955 54.981 123.982 54.9074C124.002 54.8571 124.016 54.7748 124.026 54.6606C124.035 54.5464 124.043 54.4254 124.049 54.2977C124.055 54.1699 124.059 54.047 124.061 53.9289C124.063 53.8108 124.063 53.7208 124.063 53.6589ZM130.068 51.9574H129.168V55.8888H128.739V51.9574H127.838V51.5334H130.068V51.9574ZM133.541 55.8888H131.364V51.5334H133.501V51.9748H131.764V53.473H133.489V53.8505H131.764V55.4475H133.541V55.8888ZM136.823 54.379C136.819 54.5958 136.811 54.799 136.799 54.9887C136.788 55.1784 136.748 55.3439 136.68 55.4852C136.613 55.6266 136.505 55.7379 136.358 55.8192C136.211 55.9005 136.002 55.9411 135.731 55.9411C135.541 55.9411 135.38 55.913 135.249 55.8569C135.117 55.8008 135.011 55.7214 134.929 55.6188C134.848 55.5162 134.789 55.3923 134.752 55.2471C134.716 55.102 134.697 54.9403 134.697 54.7622V52.6716C134.697 52.4819 134.716 52.3135 134.755 52.1664C134.794 52.0193 134.857 51.8954 134.944 51.7947C135.031 51.6941 135.144 51.6186 135.284 51.5683C135.423 51.5179 135.593 51.4928 135.795 51.4928C136.039 51.4928 136.228 51.5344 136.364 51.6176C136.499 51.7009 136.601 51.8122 136.669 51.9515C136.736 52.0909 136.778 52.2506 136.794 52.4306C136.809 52.6107 136.819 52.7974 136.823 52.991H136.439C136.439 52.8633 136.438 52.7316 136.436 52.5961C136.434 52.4606 136.415 52.3377 136.378 52.2274C136.342 52.117 136.278 52.0261 136.187 51.9544C136.096 51.8828 135.961 51.847 135.783 51.847C135.648 51.847 135.534 51.8664 135.443 51.9051C135.352 51.9438 135.281 51.9999 135.228 52.0735C135.176 52.1471 135.139 52.2342 135.118 52.3348C135.097 52.4355 135.086 52.5477 135.086 52.6716L135.098 54.7913C135.098 54.9074 135.107 55.0129 135.124 55.1078C135.141 55.2026 135.173 55.2839 135.22 55.3517C135.266 55.4194 135.331 55.4717 135.414 55.5085C135.498 55.5453 135.603 55.5636 135.731 55.5636C135.928 55.5636 136.075 55.5298 136.172 55.462C136.269 55.3943 136.337 55.3043 136.375 55.192C136.414 55.0797 136.434 54.9529 136.436 54.8116C136.438 54.6703 136.439 54.5261 136.439 54.379H136.823ZM140.557 55.8888H140.115L140.11 53.9144H138.716L138.722 55.8888H138.286V51.5334H138.722L138.716 53.5021H140.11L140.115 51.5334H140.557V55.8888ZM146.266 54.7622C146.266 55.1184 146.173 55.4039 145.987 55.6188C145.801 55.8337 145.524 55.9411 145.156 55.9411C144.94 55.9411 144.757 55.9101 144.608 55.8482C144.459 55.7863 144.338 55.6972 144.245 55.5811C144.152 55.4649 144.085 55.3255 144.044 55.1629C144.004 55.0003 143.985 54.8184 143.989 54.6171L143.995 54.4661H144.442C144.442 54.59 144.446 54.7168 144.454 54.8464C144.461 54.9761 144.487 55.0942 144.529 55.2007C144.572 55.3072 144.638 55.3943 144.727 55.462C144.816 55.5298 144.943 55.5636 145.11 55.5636C145.365 55.5636 145.553 55.4959 145.673 55.3604C145.793 55.2249 145.853 55.0352 145.853 54.7913C145.853 54.5977 145.807 54.4448 145.714 54.3325C145.621 54.2202 145.505 54.1254 145.365 54.048C145.226 53.9705 145.076 53.9008 144.915 53.8389C144.755 53.777 144.605 53.6995 144.465 53.6066C144.326 53.5137 144.21 53.3946 144.117 53.2495C144.024 53.1043 143.978 52.9117 143.978 52.6716C143.978 52.2845 144.077 51.9912 144.277 51.7919C144.476 51.5925 144.769 51.4928 145.156 51.4928C145.338 51.4928 145.496 51.5218 145.63 51.5799C145.763 51.638 145.875 51.7193 145.964 51.8238C146.053 51.9283 146.118 52.0522 146.161 52.1955C146.204 52.3387 146.225 52.4974 146.225 52.6716V53.0375H145.801C145.801 52.9097 145.8 52.7771 145.798 52.6397C145.796 52.5023 145.776 52.3764 145.737 52.2622C145.698 52.148 145.634 52.0541 145.543 51.9806C145.452 51.907 145.319 51.8702 145.145 51.8702C144.893 51.8702 144.703 51.9341 144.576 52.0619C144.448 52.1896 144.388 52.3774 144.396 52.6252V52.6833C144.4 52.8033 144.42 52.903 144.457 52.9823C144.493 53.0617 144.544 53.1294 144.608 53.1856C144.671 53.2417 144.746 53.2911 144.831 53.3337C144.916 53.3763 145.009 53.4208 145.11 53.4672C145.257 53.5331 145.4 53.6027 145.54 53.6763C145.679 53.7499 145.802 53.836 145.908 53.9347C146.015 54.0334 146.101 54.1496 146.167 54.2832C146.233 54.4167 146.266 54.5764 146.266 54.7622ZM149.872 54.7622C149.872 55.1726 149.78 55.4717 149.596 55.6595C149.412 55.8472 149.113 55.9411 148.699 55.9411C148.32 55.9411 148.042 55.8366 147.866 55.6275C147.689 55.4185 147.601 55.13 147.601 54.7622V52.6716C147.601 52.2729 147.695 51.9767 147.883 51.7831C148.071 51.5896 148.366 51.4928 148.769 51.4928C149.152 51.4928 149.432 51.5944 149.608 51.7977C149.784 52.0009 149.872 52.2884 149.872 52.66V54.7622ZM149.465 54.7506L149.465 52.6542C149.465 52.4335 149.407 52.2497 149.291 52.1025C149.175 51.9554 148.999 51.8819 148.763 51.8819C148.48 51.8819 148.284 51.9554 148.173 52.1025C148.063 52.2496 148.008 52.4568 148.008 52.7239V54.7274C148.008 54.8397 148.02 54.9452 148.046 55.0439C148.071 55.1426 148.111 55.2288 148.168 55.3023C148.224 55.3759 148.295 55.434 148.382 55.4765C148.47 55.5191 148.575 55.5404 148.699 55.5404C148.97 55.5404 149.165 55.4746 149.285 55.343C149.405 55.2113 149.465 55.0139 149.465 54.7506ZM153.095 55.8888H151.301V51.5334H151.707V55.4707H153.095V55.8888ZM156.487 54.7622C156.487 55.1494 156.393 55.4427 156.205 55.642C156.017 55.8414 155.728 55.9411 155.337 55.9411C154.965 55.9411 154.686 55.8346 154.498 55.6217C154.31 55.4088 154.216 55.1223 154.216 54.7622V51.5334H154.628V54.7448C154.628 54.8532 154.643 54.9549 154.672 55.0497C154.701 55.1446 154.745 55.2278 154.803 55.2994C154.861 55.371 154.933 55.4272 155.02 55.4678C155.108 55.5085 155.209 55.5288 155.325 55.5288C155.608 55.5288 155.804 55.4504 155.915 55.2936C156.025 55.1368 156.08 54.9268 156.08 54.6635V51.5334H156.487V54.7622ZM160 51.9574H159.1V55.8888H158.67V51.9574H157.77V51.5334H160V51.9574ZM161.789 55.8888H161.353V51.5334H161.789V55.8888ZM165.535 54.7622C165.535 55.1726 165.443 55.4717 165.259 55.6595C165.075 55.8472 164.776 55.9411 164.362 55.9411C163.982 55.9411 163.705 55.8366 163.528 55.6275C163.352 55.4185 163.264 55.13 163.264 54.7622V52.6716C163.264 52.2729 163.358 51.9767 163.546 51.7831C163.734 51.5896 164.029 51.4928 164.431 51.4928C164.815 51.4928 165.094 51.5944 165.271 51.7977C165.447 52.0009 165.535 52.2884 165.535 52.66V54.7622ZM165.128 54.7506L165.128 52.6542C165.128 52.4335 165.07 52.2497 164.954 52.1025C164.838 51.9554 164.662 51.8819 164.426 51.8819C164.143 51.8819 163.947 51.9554 163.836 52.1025C163.726 52.2496 163.671 52.4568 163.671 52.7239V54.7274C163.671 54.8397 163.683 54.9452 163.708 55.0439C163.734 55.1426 163.774 55.2288 163.83 55.3023C163.887 55.3759 163.958 55.434 164.045 55.4765C164.132 55.5191 164.238 55.5404 164.362 55.5404C164.633 55.5404 164.828 55.4746 164.948 55.343C165.068 55.2113 165.128 55.0139 165.128 54.7506ZM169.345 55.8888H168.892L167.382 52.4626V55.8888H166.964V51.5334H167.382L168.897 54.8145L168.932 51.5334H169.345V55.8888ZM173.073 54.7622C173.073 55.1184 172.98 55.4039 172.794 55.6188C172.608 55.8337 172.332 55.9411 171.964 55.9411C171.747 55.9411 171.564 55.9101 171.415 55.8482C171.266 55.7863 171.145 55.6972 171.052 55.5811C170.959 55.4649 170.892 55.3255 170.852 55.1629C170.811 55.0003 170.793 54.8184 170.797 54.6171L170.802 54.4661H171.249C171.249 54.59 171.253 54.7168 171.261 54.8464C171.269 54.9761 171.294 55.0942 171.337 55.2007C171.379 55.3072 171.445 55.3943 171.534 55.462C171.623 55.5298 171.751 55.5636 171.917 55.5636C172.173 55.5636 172.361 55.4959 172.481 55.3604C172.601 55.2249 172.661 55.0352 172.661 54.7913C172.661 54.5977 172.614 54.4448 172.521 54.3325C172.428 54.2202 172.312 54.1254 172.173 54.048C172.033 53.9705 171.883 53.9008 171.723 53.8389C171.562 53.777 171.412 53.6995 171.273 53.6066C171.133 53.5137 171.017 53.3946 170.924 53.2495C170.831 53.1043 170.785 52.9117 170.785 52.6716C170.785 52.2845 170.885 51.9912 171.084 51.7919C171.283 51.5925 171.577 51.4928 171.964 51.4928C172.146 51.4928 172.303 51.5218 172.437 51.5799C172.571 51.638 172.682 51.7193 172.771 51.8238C172.86 51.9283 172.926 52.0522 172.968 52.1955C173.011 52.3387 173.032 52.4974 173.032 52.6716V53.0375H172.608C172.608 52.9097 172.607 52.7771 172.605 52.6397C172.604 52.5023 172.583 52.3764 172.544 52.2622C172.506 52.148 172.441 52.0541 172.35 51.9806C172.259 51.907 172.126 51.8702 171.952 51.8702C171.7 51.8702 171.511 51.9341 171.383 52.0619C171.255 52.1896 171.195 52.3774 171.203 52.6252V52.6833C171.207 52.8033 171.227 52.903 171.264 52.9823C171.301 53.0617 171.351 53.1294 171.415 53.1856C171.479 53.2417 171.553 53.2911 171.639 53.3337C171.724 53.3763 171.817 53.4208 171.917 53.4672C172.064 53.5331 172.208 53.6027 172.347 53.6763C172.486 53.7499 172.609 53.836 172.716 53.9347C172.822 54.0334 172.908 54.1496 172.974 54.2832C173.04 54.4167 173.073 54.5764 173.073 54.7622Z" fill="url(#paint2_linear_1_30)"/>
</g>
<defs>
<linearGradient id="paint0_linear_1_30" x1="10.4026" y1="10.4026" x2="67.0275" y2="10.4026" gradientUnits="userSpaceOnUse">
<stop stop-color="#905E26"/>
<stop offset="0.5" stop-color="#F5EC9B"/>
<stop offset="1" stop-color="#905E26"/>
</linearGradient>
<linearGradient id="paint1_linear_1_30" x1="77.4992" y1="29.1272" x2="234.72" y2="29.1272" gradientUnits="userSpaceOnUse">
<stop stop-color="#905E26"/>
<stop offset="0.5" stop-color="#F5EC9B"/>
<stop offset="1" stop-color="#905E26"/>
</linearGradient>
<linearGradient id="paint2_linear_1_30" x1="77.4992" y1="55.9411" x2="173.073" y2="55.9411" gradientUnits="userSpaceOnUse">
<stop stop-color="#FFF7AE"/>
<stop offset="0.43" stop-color="#C5913F"/>
<stop offset="0.44" stop-color="#FFF7AE"/>
<stop offset="1" stop-color="#9A6831"/>
</linearGradient>
<clipPath id="clip0_1_30">
<rect width="234.72" height="74.606" fill="white"/>
</clipPath>
</defs>
</svg>
